<?xml version="1.0" encoding="UTF-8" standalone="no"?>
<svg width="542px" height="615px" viewBox="0 0 542 615" version="1.1" xmlns="http://www.w3.org/2000/svg" xmlns:xlink="http://www.w3.org/1999/xlink">
    <!-- Generator: Sketch 42 (36781) - http://www.bohemiancoding.com/sketch -->
    <title>Page 1</title>
    <desc>Created with Sketch.</desc>
    <defs></defs>
    <g id="Page-1" stroke="none" stroke-width="1" fill="none" fill-rule="evenodd" opacity="0.03">
        <g id="Entry" transform="translate(-442.000000, 0.000000)" fill="#221F20">
            <g id="Page-1" transform="translate(442.000000, -41.000000)">
                <path d="M55.1054472,599.367321 L486.729048,599.367321 L486.729048,593.582682 C486.729048,551.964403 486.993832,510.344204 486.552525,468.731689 C486.431645,457.412163 494.845267,442.672956 510.095316,440.317603 C523.344133,438.271559 536.224553,446.273227 540.55896,459.644561 C541.518324,462.608924 541.742815,465.919098 541.746652,469.071736 C541.815726,521.254521 541.489543,573.439228 541.986493,625.616249 C542.128479,640.466884 530.717804,655.478896 512.165624,655.407813 C434.152066,655.10811 356.138507,655.281016 278.124949,655.281016 C195.314571,655.281016 112.504193,655.261804 29.6957334,655.30407 C19.0352811,655.309833 9.96929171,651.890153 4.6486592,642.366919 C2.11401963,637.829119 0.249016094,632.219306 0.218316447,627.084022 C-0.0963549306,574.102031 0.0187687443,521.120039 0.0283623839,468.138048 C0.0302811118,452.553527 12.1432104,440.183122 27.4009348,440.123565 C42.9598995,440.062088 55.1035285,452.365253 55.1073659,468.220658 C55.1131221,509.838937 55.1073659,551.457215 55.1054472,593.075493 L55.1054472,599.367321" id="Fill-1"></path>
                <g id="Group-5" transform="translate(127.000000, 0.000000)">
                    <path d="M172.910236,320.089812 C196.040501,297.395046 219.161173,274.830919 242.128346,252.109256 C249.837795,244.480295 258.844304,241.656177 269.236134,244.124879 C280.009791,246.683876 286.623646,254.020819 289.36359,264.5104 C292.053646,274.809786 288.786053,283.747063 281.469943,291.245384 C274.209477,298.687992 266.866505,306.04799 259.544639,313.431041 C228.121632,345.118798 196.677519,376.783501 165.277537,408.496234 C153.920586,419.965611 137.062643,420.234575 125.509982,408.805542 C113.799986,397.217052 102.243487,385.472947 90.6466958,373.77303 C63.6214131,346.505882 36.5884555,319.252182 9.61305972,291.937005 C-1.2757212,280.911418 -2.93542085,267.645748 4.87955795,255.822875 C14.7437382,240.899237 34.9038124,238.785951 47.5520668,251.488719 C69.3353848,273.365067 91.0323601,295.324026 112.744685,317.269536 C113.980346,318.518296 115.027971,319.949567 116.163858,321.298227 L117.445569,320.915914 L117.445569,315.561617 C117.44365,220.008448 117.424463,124.4572 117.468593,28.9059513 C117.472431,17.711301 122.599272,9.18323303 132.338735,3.86928031 C141.834519,-1.31019061 151.543282,-0.745366998 160.457692,5.31399919 C168.608448,10.8546498 172.90448,18.8524753 172.906399,28.8771337 C172.921749,84.2567437 172.910236,139.636354 172.910236,195.014043 L172.910236,315.534721 L172.910236,320.089812 Z" id="Fill-3"></path>
                </g>
            </g>
        </g>
    </g>
</svg>